Coordinates
version=1
nRows=9
nColumns=24
inDegrees=yes

Units are S.I. units (second, meters, Newtons, ...)
If the header above contains a line with 'inDegrees', this indicates whether rotational values are in degrees (yes) or radians (no).

endheader
time	pelvis_tilt	pelvis_list	pelvis_rotation	pelvis_tx	pelvis_ty	pelvis_tz	hip_flexion_r	hip_adduction_r	hip_rotation_r	knee_angle_r	ankle_angle_r	subtalar_angle_r	mtp_angle_r	hip_flexion_l	hip_adduction_l	hip_rotation_l	knee_angle_l	ankle_angle_l	subtalar_angle_l	mtp_angle_l	lumbar_extension	lumbar_bending	lumbar_rotation
      0.84666667	      4.56896424	      1.17539955	     -4.52697871	      0.24858593	      0.73181646	     -0.29390629	     17.92071064	     -7.62678481	     -6.59737478	    -73.29219531	     -8.86641561	    -16.30143628	      0.00000000	     12.54752365	      3.02700928	     -7.82531897	    -21.38472391	      7.44336516	    -12.02828088	      0.00000000	    -11.93304200	     -4.82043238	     15.25382089
      0.85333333	      4.57004876	      1.06675179	     -4.21745357	      0.25614501	      0.73317460	     -0.29433512	     18.99824547	     -7.47647149	     -6.80856963	    -73.27092185	     -7.42480003	    -16.02128157	      0.00000000	     11.52070300	      3.03390440	     -7.78239600	    -20.74678100	      7.94179278	    -11.55623950	      0.00000000	    -12.01197833	     -4.63725152	     14.86520075
      0.86000000	      4.48811946	      0.94223714	     -3.94733784	      0.26354375	      0.73435439	     -0.29464563	     20.17075834	     -7.22329344	     -6.93170279	    -73.11628376	     -6.58337339	    -16.21035601	      0.00000000	     10.59789827	      3.01628672	     -7.61622441	    -20.10047506	      8.23882306	    -11.37506766	      0.00000000	    -12.01791059	     -4.43601483	     14.59601490
      0.86666667	      4.64482373	      0.85570059	     -3.50023334	      0.27121859	      0.73566736	     -0.29528965	     20.91410129	     -7.22627592	     -7.32223239	    -72.78821598	     -4.98621585	    -15.30454234	      0.00000000	      9.41759511	      3.07660449	     -7.34572509	    -19.47239865	      8.76825936	    -10.79940544	      0.00000000	    -12.27968759	     -4.25076415	     13.87582789
      0.87333333	      4.61547842	      0.76439701	     -3.16508993	      0.27863916	      0.73664003	     -0.29570806	     21.91809820	     -7.10418882	     -7.55878865	    -72.36536918	     -4.09997632	    -15.12984221	      0.00000000	      8.50397852	      3.08115792	     -7.16170040	    -18.91938503	      9.13451850	    -10.57154054	      0.00000000	    -12.33771246	     -4.07026847	     13.51213676
      0.88000000	      4.68732650	      0.66186393	     -2.70201485	      0.28619375	      0.73760911	     -0.29625810	     22.68533528	     -7.06228316	     -7.95823784	    -71.77128743	     -2.99930451	    -14.45939530	      0.00000000	      7.48827616	      3.08212547	     -6.84684229	    -18.38170695	      9.55083901	    -10.16604330	      0.00000000	    -12.50865274	     -3.88068313	     12.87638654
      0.88666667	      4.71448388	      0.59376059	     -2.25523985	      0.29370959	      0.73838585	     -0.29676529	     23.44849714	     -7.00218450	     -8.27112217	    -71.00675859	     -2.13127878	    -14.22099977	      0.00000000	      6.56325326	      3.10267755	     -6.54006016	    -17.90078744	     10.00586105	     -9.90089743	      0.00000000	    -12.62521694	     -3.73131110	     12.35331758
      0.89333333	      4.73592473	      0.48944081	     -1.83462973	      0.30115200	      0.73897222	     -0.29727529	     24.22330494	     -6.97295157	     -8.67571224	    -70.17903721	     -1.46258097	    -13.94368324	      0.00000000	      5.70380125	      3.05953512	     -6.29557674	    -17.52478849	     10.36395134	     -9.61668499	      0.00000000	    -12.74140154	     -3.50972885	     11.82182750
      0.90000000	      4.63429413	      0.46702048	     -1.54487498	      0.30852959	      0.73927479	     -0.29759002	     25.13549070	     -6.91390793	     -8.83964617	    -69.21448311	     -1.15859115	    -13.99875263	      0.00000000	      5.05539114	      3.06089744	     -6.27820597	    -17.27109415	     10.59905771	     -9.56515406	      0.00000000	    -12.69651901	     -3.42010591	     11.66107613
